<?xml version="1.0" standalone="no"?>
<!DOCTYPE svg PUBLIC "-//W3C//DTD SVG 20010904//EN"
 "http://www.w3.org/TR/2001/REC-SVG-20010904/DTD/svg10.dtd">
<svg version="1.0" xmlns="http://www.w3.org/2000/svg"
 width="260.000000pt" height="260.000000pt" viewBox="0 0 260.000000 260.000000"
 preserveAspectRatio="xMidYMid meet">
<metadata>
Created by potrace 1.11, written by Peter Selinger 2001-2013
</metadata>
<g transform="translate(0.000000,260.000000) scale(0.100000,-0.100000)"
fill="#000000" stroke="none">
<path d="M0 1300 l0 -1300 1300 0 1300 0 0 1300 0 1300 -1300 0 -1300 0 0
-1300z m2414 864 c33 -32 45 -54 53 -91 19 -98 14 -107 -346 -643 -183 -272
-349 -511 -370 -530 -67 -62 -175 -67 -261 -13 -37 22 -338 168 -368 177 -13
5 -99 -75 -342 -317 -316 -315 -326 -324 -375 -333 -157 -29 -271 85 -240 241
9 45 22 63 131 180 67 71 243 250 390 396 l269 266 57 11 c75 15 110 4 325
-99 92 -45 178 -85 190 -90 21 -8 42 22 298 404 152 227 294 428 316 448 47
44 109 59 182 45 37 -7 59 -19 91 -52z"/>
</g>
</svg>
